<?xml version="1.0" encoding="utf-8"?>
<!-- Generator: Adobe Illustrator 21.0.0, SVG Export Plug-In . SVG Version: 6.00 Build 0)  -->
<svg version="1.1" id="Layer_1" xmlns="http://www.w3.org/2000/svg" xmlns:xlink="http://www.w3.org/1999/xlink" x="0px" y="0px"
	 viewBox="0 0 15.2 21.7" style="enable-background:new 0 0 15.2 21.7;" xml:space="preserve">
<style type="text/css">
	.st0{fill:#4E8839;}
</style>
<g id="Glyph_copy_2">
	<path class="st0" d="M9.2,9.2c0-0.6-0.5-1.1-1.1-1.1S6.9,8.6,6.9,9.2c0,0.6,0.5,1.1,1.1,1.1C8.7,10.3,9.2,9.8,9.2,9.2z"/>
	<path class="st0" d="M8.1,13.7L8.5,13c0.5-0.6,2-2.8,2-3.9c0-1.5-1-2.5-2.5-2.5c-1.5,0-2.5,1-2.5,2.5c0,1.3,1.8,3.6,2,3.9L8.1,13.7
		z M6.5,9.2c0-0.8,0.7-1.6,1.6-1.6c0.8,0,1.6,0.7,1.6,1.6c0,0.8-0.7,1.6-1.6,1.6S6.5,10,6.5,9.2z"/>
</g>
</svg>
